<svg xmlns="http://www.w3.org/2000/svg" fill="none" viewBox="0 0 20 20">
    <path fill="#000" d="M11.32 10l5.903-5.894c.176-.176.275-.416.275-.665 0-.25-.099-.489-.275-.665-.176-.177-.416-.276-.665-.276-.25 0-.489.1-.665.276L10 8.678 4.107 2.776c-.176-.177-.415-.276-.665-.276-.25 0-.488.1-.665.276-.176.176-.275.415-.275.665 0 .25.099.489.275.665L8.68 9.999l-5.902 5.893c-.088.088-.157.191-.205.305-.048.115-.072.237-.072.36 0 .124.024.247.072.361.048.114.117.218.205.305.087.088.19.157.305.205.114.048.237.072.36.072.124 0 .246-.024.36-.072.115-.048.218-.117.305-.205L10 11.32l5.893 5.903c.087.088.19.157.305.205.114.048.236.072.36.072.123 0 .246-.024.36-.072.114-.048.218-.117.305-.205.088-.087.157-.19.205-.305.047-.114.072-.237.072-.36 0-.124-.024-.246-.072-.36-.048-.115-.117-.218-.205-.306L11.32 10z"/>
</svg>
