<svg xmlns="http://www.w3.org/2000/svg" viewBox="0 0 16 16">
    <defs>
        <style>
            @keyframes spin {
                0% { transform: rotate(0deg); }
                100% {  transform: rotate(359deg); }
            }
            .loading_spinner_icon{
                animation: spin 1s linear infinite;
                transform-origin: center;
            }
        </style>
    </defs>
    <g class="loading_spinner_icon">
        <g id="Grupo_15070" fill="none" transform="translate(-626.667 -323.667)">
            <g id="Elipse_2962" stroke="#afafaf" stroke-width="2px" opacity="0.22" transform="translate(626.733 323.733)">
                <circle cx="7.934" cy="7.934" r="7.934" stroke="none"/>
                <circle cx="7.934" cy="7.934" r="6.934"/>
            </g>
            <g id="Trazado_18552" stroke-dasharray="20 300">
                <path d="M8 0a8 8 0 1 1-8 8 8 8 0 0 1 8-8z" stroke="none" transform="translate(626.667 323.667)"/>
                <path fill="#afafaf" d="M8 0c4.418 0 8 3.582 8 8V8.124l-.001.006v.048l-.001.005v.033l-.001.005v.031l-.001.002V8.283l-.001.007v.017l-.001.005v.024l-.001.002v.022l-.001.005v.016l-.001.002v.015l-.001.006v.017l-.001.005v.015l-.001.002v.014l-.001.003V8.474l-.001.004v.01l-.001.007v.014l-.001.003v.012l-.001.002V8.535l-.001.005v.014l-.001.003v.007l-.001.006v.011l-.001.004v.01l-.001.004v.01l-.001.007v.007l-.001.002v.008l-.001.004v.01l-.001.007v.007l-.001.002v.008l-.001.004v.01l-.002.014V8.708l-.001.005v.002l-.001.005V8.729l-.001.007v.002l-.001.005v.007l-.001.003v.007l-.001.005v.002l-.001.007V8.783l-.001.005v.002l-.001.005v.008l-.001.002-.001.014v.001l-.001.006v.007l-.001.002v.007l-.001.005v.002l-.001.007v.002l-.001.005v.007l-.001.003v.007l-.001.005v.002l-.001.007-.001.007v.007l-.001.002v.005l-.001.002v.007l-.002.006v.01l-.001.005v.002l-.001.005v.007l-.001.003v.005l-.001.002v.006l-.001.003v.004l-.001.003v.007l-.001.004V9l-.001.004v.003l-.001.007v.001l-.001.006v.002l-.001.005v.002l-.001.005v.002l-.001.005v.002l-.001.006v.001l-.001.007v.002l-.001.005v.002l-.001.005v.002l-.001.005v.002l-.001.005v.002l-.001.007v.002l-.001.005v.002l-.001.005v.003l-.001.004v.003l-.001.005v.001l-.001.007v.001l-.001.006v.002l-.001.005v.003l-.001.004v.003l-.001.004v.003l-.003.013v.007l-.001.003v.004l-.001.003v.004l-.001.003-.001.005v.002l-.001.007-.001.006v.002l-.001.005v.003l-.001.004v.003l-.002.005v.001l-.002.014v.002l-.001.005v.002l-.001.005v.002l-.001.005v.002l-.002.007-.001.007v.002l-.001.005v.002l-.001.005v.002l-.001.005v.002l-.002.006v.001l-.001.007-.001.007v.002l-.001.005v.002l-.002.005v.007l-.001.002-.002.014v.002l-.002.005v.007l-.001.002-.001.005v.002l-.002.006-.001.008-.001.006v.002l-.001.005v.003l-.002.004v.002l-.001.005v.002l-.002.007v.007l-.001.002-.001.005v.002l-.001.005v.002l-.002.005v.002l-.003.014v.006l-.001.003-.001.004v.003l-.002.005v.001l-.001.006v.001l-.002.007v.007l-.001.002-.001.005v.002l-.002.005v.002l-.001.005v.002l-.002.007-.001.006v.002l-.001.005v.002l-.002.005v.002l-.001.006v.001l-.003.014-.002.007v.002l-.001.005v.002l-.002.005v.001l-.001.007-.002.007v.001l-.001.006v.002l-.002.005v.002l-.001.005v.002l-.002.005v.002l-.002.006v.001l-.001.006v.002l-.001.005-.001.002-.001.005v.002l-.002.005v.002l-.003.014v.001l-.001.005v.002l-.002.005v.002l-.001.005v.002l-.002.006-.002.008-.001.006v.002l-.002.005v.002l-.002.005v.002l-.001.005v.002l-.004.014-.001.006v.002l-.002.005v.002l-.001.005v.002l-.004.013v.002l-.002.005v.002l-.001.005v.002l-.002.005v.002l-.002.005v.002l-.002.006v.002l-.001.005v.002l-.002.005v.002l-.001.005-.001.002-.001.005v.002l-.004.013v.002l-.002.005v.002l-.001.004v.003l-.002.004v.002l-.002.006v.001l-.002.007v.001l-.001.005-.001.003-.001.004v.003l-.002.004v.002l-.002.006-.002.008-.002.006v.002l-.001.005v.002l-.002.005v.002l-.002.005v.002l-.004.013v.001l-.002.006v.002l-.001.004v.003l-.002.004v.002l-.002.007-.002.007-.002.006v.002l-.002.005v.002l-.002.005v.002l-.002.006-.002.007-.002.007v.002l-.001.004-.001.003-.001.004v.002l-.002.005v.002l-.004.013v.002l-.002.005v.002l-.002.005v.002l-.002.005v.001l-.002.007-.002.007-.002.006v.002l-.002.005v.002l-.002.005v.002l-.002.005v.001l-.004.014v.001l-.002.005v.002l-.002.005v.002l-.002.005v.002l-.004.013v.001l-.002.006-.001.001-.001.005-.001.002-.001.005v.002l-.005.013-.002.007v.002l-.002.004v.002l-.002.005v.002l-.002.005v.001l-.002.007-.002.007v.001l-.002.005-.001.002-.002.005v.002l-.002.005v.002l-.004.013v.001l-.002.005v.002l-.002.005v.002l-.003.005v.001l-.002.007-.002.007-.002.006v.002l-.002.005v.002l-.002.005v.001l-.003.006v.001l-.004.013v.001l-.002.006-.001.002-.002.005v.001l-.002.005v.002l-.005.013v.001l-.002.006v.001l-.002.005v.002l-.002.005v.002l-.003.006-.004.013v.002l-.002.005v.002l-.003.005v.001l-.002.006-.005.014v.001l-.002.006v.001l-.002.005v.002l-.002.005-.001.001-.004.014-.003.006v.002l-.002.005v.002l-.002.004v.002l-.003.006-.005.014v.001l-.002.005v.002l-.002.005v.002l-.003.005v.001l-.005.013v.001l-.002.006v.001l-.002.005v.002l-.003.005v.002l-.002.006-.003.006v.001l-.002.006v.001l-.003.005v.002l-.002.005v.002l-.003.005v.001l-.002.007-.003.006v.002l-.002.005v.001l-.002.005-.001.002-.002.005v.001l-.005.013v.002l-.002.005-.001.002-.002.004v.002l-.002.005-.001.002-.002.005v.001l-.003.006v.002l-.002.005-.001.002-.002.004v.002l-.002.005v.002l-.003.005v.001l-.005.013v.002l-.003.004v.002l-.002.005v.002l-.003.005v.001l-.005.013-.003.006v.002l-.002.005v.002l-.003.004v.002l-.005.013-.003.006v.002l-.002.005-.001.001-.002.006-.003.007-.005.013v.001l-.003.006-.002.006-.001.001-.002.006-.006.014-.002.006V11c-.002.001-.002.003-.003.005v.001l-.003.005v.002l-.008.019v.001l-.003.005v.002l-.002.005v.001l-.003.006-.006.013v.002l-.003.005v.001l-.002.005v.002c-.002.001-.002.003-.003.005l-.006.014-.003.006v.001l-.002.006-.003.006v.001l-.009.02-.002.006-.001.001-.002.005v.002l-.003.006-.006.013v.001l-.003.005v.002l-.002.004-.001.002-.002.005v.001l-.01.02-.002.006v.001l-.003.005v.002l-.003.005-.003.007-.003.006v.002l-.003.005v.001l-.002.005-.001.002-.002.005-.007.013v.002l-.002.005-.001.001-.002.005v.001l-.003.006-.007.014-.002.006-.001.001-.002.005v.002l-.003.004v.002l-.003.005-.004.007-.002.007h-.001l-.002.006-.001.001-.002.005v.002c-.002.001-.002.003-.003.005l-.007.013v.001l-.003.006v.001l-.002.005-.001.001c0 .002-.002.004-.003.005v.001l-.003.007-.003.006-.003.006v.002l-.003.005v.001l-.003.005v.001l-.003.006-.006.013-.001.001-.002.005-.001.002-.003.005-.003.006-.006.013v.001l-.003.006-.003.006v.001l-.003.005v.001l-.007.013-.003.006v.002l-.003.004v.002l-.003.004v.002l-.003.005v.001l-.007.012v.001l-.003.005v.002l-.003.005v.001c-.002.002-.003.003-.003.005v.001l-.007.013-.003.006-.001.001-.002.005-.001.002-.002.004-.001.002-.003.005-.003.007-.003.006-.001.002-.003.004v.002l-.003.004v.002l-.003.005-.007.013v.001l-.003.005v.002l-.003.004-.001.002-.002.005h-.001l-.006.013-.001.001-.003.005v.002l-.003.004v.002l-.003.004v.002l-.004.005-.003.007-.003.006-.001.001c0 .002-.002.003-.003.005v.002l-.003.004v.002c-.002.001-.002.003-.003.005l-.007.013-.004.006v.001l-.003.005v.001l-.003.005v.001l-.007.013-.004.006-.003.006v.001l-.003.005-.01.02h-.001l-.003.005v.002l-.003.004-.001.002-.003.005-.007.013-.003.006-.001.001-.003.005v.001l-.003.005v.001l-.008.012c0 .003-.002.004-.003.006v.001l-.003.005-.001.002-.003.004v.002l-.004.005-.007.013-.003.006-.003.005-.001.002-.003.005-.007.013-.004.006v.001l-.003.005v.001l-.004.005v.001l-.007.012-.004.006V12l-.003.005-.001.001-.002.005-.001.001-.003.005v.001l-.008.012v.002l-.003.004-.001.002-.002.003-.002.002-.002.005v.001l-.008.012-.003.006-.001.001-.003.005v.001c-.002.002-.003.003-.003.005l-.001.001-.007.012-.004.006-.003.006h-.001l-.003.006-.004.006-.007.013-.004.005v.002l-.003.004-.001.002-.003.005-.008.012-.003.006-.001.001-.003.005v.001l-.004.005v.001l-.004.006-.004.006-.003.006-.004.005v.002l-.003.004-.001.002-.003.005-.008.012v.001l-.004.005v.001l-.003.005-.001.001-.003.005-.008.013-.004.005v.002l-.004.004v.001l-.003.005-.001.001-.011.018-.004.005v.002l-.004.005-.011.018-.004.006-.004.005v.002l-.004.005-.012.018-.003.006h-.001l-.003.006-.012.018-.004.006-.004.006-.004.006-.008.012-.004.005v.001l-.004.005v.001l-.004.005-.012.018v.001l-.004.005-.004.006-.012.018-.004.006-.004.005v.001l-.004.005-.012.018-.004.006-.004.006-.012.018-.004.006-.004.005-.013.018-.003.006h-.001l-.004.005v.001l-.004.005-.008.012-.004.006-.004.005v.002l-.004.005-.013.017-.004.006-.004.006-.017.023-.004.006-.004.006-.013.017-.004.005v.001l-.004.006-.013.017-.004.005-.004.006-.017.023-.005.006-.017.023-.004.005-.004.006-.017.023-.005.006-.017.022-.004.006-.018.023-.004.005-.018.023-.004.005-.004.006-.018.022-.027.034c-.024.03-.047.06-.071.088l-.073.088c-.393.464-.837.883-1.324 1.248l-1.199-1.6C13.122 11.66 14 9.908 14 8c0-3.308-2.692-6-6-6V0z" transform="translate(626.667 323.667)"/>
            </g>
        </g>
    </g>
</svg>
