<svg xmlns="http://www.w3.org/2000/svg" width="64" height="64" viewBox="0 0 64 64">
    <g id="Grupo_15395" data-name="Grupo 15395" transform="translate(-585 -97)">
        <path id="Rectángulo_17668" fill="none" d="M0 0H64V64H0z" data-name="Rectángulo 17668" transform="translate(585 97)"/>
        <path id="data-file-bars" fill="#ddd" d="M7.333 64H50a5.333 5.333 0 0 0 5.333-5.333v-41.79a5.333 5.333 0 0 0-1.562-3.777L42.229 1.563A5.333 5.333 0 0 0 38.459 0H7.333A5.333 5.333 0 0 0 2 5.333v53.334A5.333 5.333 0 0 0 7.333 64zM34 32a1.333 1.333 0 0 1 1.333-1.333H38A1.333 1.333 0 0 1 39.333 32v13.333A1.333 1.333 0 0 1 38 46.667h-2.667A1.333 1.333 0 0 1 34 45.333zm-9.333-5.333A1.333 1.333 0 0 1 26 25.333h2.667A1.333 1.333 0 0 1 30 26.667v18.666a1.333 1.333 0 0 1-1.333 1.333H26a1.333 1.333 0 0 1-1.333-1.333zm-9.333 12a1.333 1.333 0 0 1 1.333-1.333h2.667a1.333 1.333 0 0 1 1.333 1.333v6.667a1.333 1.333 0 0 1-1.333 1.333h-2.667a1.333 1.333 0 0 1-1.333-1.333z" transform="translate(588 97)"/>
    </g>
</svg>
